<svg xmlns="http://www.w3.org/2000/svg" xmlns:svg="http://www.w3.org/2000/svg" id="svg8" width="166.68" height="166.678" version="1.1" viewBox="0 0 44.101 44.1"><metadata id="metadata5"/><g id="layer1" transform="translate(-94.426277,-174.66375)"><path style="display:inline;opacity:1;fill:#a5a8af;fill-opacity:1;fill-rule:evenodd;stroke:none;stroke-width:3.77952766;stroke-linecap:butt;stroke-linejoin:round;stroke-miterlimit:4;stroke-dasharray:none;stroke-dashoffset:0;stroke-opacity:1" id="rect837" d="m 375.78516,660.14648 c -10.4693,0 -18.89844,8.4272 -18.89844,18.89649 v 128.88281 c 0,10.46929 8.42914,18.89844 18.89844,18.89844 h 128.88281 c 10.46929,0 18.89844,-8.42915 18.89844,-18.89844 V 679.04297 c 0,-10.46929 -8.42915,-18.89649 -18.89844,-18.89649 z m 0.76562,4.54493 h 127.35156 c 8.37544,0 15.11719,6.74175 15.11719,15.11718 v 127.35157 c 0,8.37543 -6.74175,15.11914 -15.11719,15.11914 H 376.55078 c -8.37543,0 -15.11719,-6.74371 -15.11719,-15.11914 V 679.80859 c 0,-8.37543 6.74176,-15.11718 15.11719,-15.11718 z" transform="scale(0.26458333)"/></g></svg>