<svg xmlns="http://www.w3.org/2000/svg" xmlns:svg="http://www.w3.org/2000/svg" id="svg8" width="166.68" height="166.678" version="1.1" viewBox="0 0 44.101 44.1"><metadata id="metadata5"/><g id="layer1" transform="translate(-94.426277,-174.66375)"><path style="display:inline;opacity:1;fill:#707276;fill-opacity:1;fill-rule:evenodd;stroke:none;stroke-width:3.77952766;stroke-linecap:butt;stroke-linejoin:round;stroke-miterlimit:4;stroke-dasharray:none;stroke-dashoffset:0;stroke-opacity:1" id="rect1029" d="m 375.78516,660.14648 c -10.4693,0 -18.89844,8.4272 -18.89844,18.89649 v 128.88281 c 0,10.46929 8.42914,18.89844 18.89844,18.89844 h 128.88281 c 10.46929,0 18.89844,-8.42915 18.89844,-18.89844 V 679.04297 c 0,-10.46929 -8.42915,-18.89649 -18.89844,-18.89649 z m 110.5957,42.88672 c 1.861,0.0113 3.45868,0.66278 4.80469,2.00977 l 3.66406,3.66601 c 1.35402,1.34998 2.002,2.95613 2,4.82813 -0.0491,1.85703 -0.70889,3.44527 -2.00391,4.73828 0,0 -59.3695,59.37142 -60.27148,60.27344 -0.90202,0.90198 -2.81749,2.8125 -5.8125,2.8125 -2.99501,0 -4.9726,-1.9726 -5.8086,-2.8086 -0.83599,-0.83599 -22.80468,-22.80859 -22.80468,-22.80859 -1.342,-1.33999 -2.01193,-2.93381 -2.00196,-4.75781 -0.034,-1.85001 0.6539,-3.44491 2.00391,-4.79492 l 3.66406,-3.66602 c 1.35001,-1.34801 2.9479,-2.03695 4.79688,-2.00195 1.82698,-0.0113 3.41386,0.658 4.75586,2 l 15.39258,15.39648 52.86523,-52.86523 c 1.342,-1.34298 2.92986,-2.00648 4.75586,-2.02149 z" transform="scale(0.26458333)"/></g></svg>